<svg width="50" height="50" viewBox="0 0 50 50" fill="none" xmlns="http://www.w3.org/2000/svg">
<path fill-rule="evenodd" clip-rule="evenodd" d="M10.4167 13.0208C8.8972 13.0208 7.43996 13.6244 6.36553 14.6988C5.29111 15.7733 4.6875 17.2305 4.6875 18.75V37.5C4.6875 39.0195 5.29111 40.4767 6.36553 41.5511C7.43996 42.6255 8.8972 43.2291 10.4167 43.2291H39.5833C41.1028 43.2291 42.56 42.6255 43.6345 41.5511C44.7089 40.4767 45.3125 39.0195 45.3125 37.5V18.75C45.3125 17.2305 44.7089 15.7733 43.6345 14.6988C42.56 13.6244 41.1028 13.0208 39.5833 13.0208H10.4167ZM34.375 25.5208C33.6843 25.5208 33.022 25.7952 32.5336 26.2836C32.0452 26.7719 31.7708 27.4343 31.7708 28.125C31.7708 28.8156 32.0452 29.478 32.5336 29.9664C33.022 30.4548 33.6843 30.7291 34.375 30.7291C35.0657 30.7291 35.728 30.4548 36.2164 29.9664C36.7048 29.478 36.9792 28.8156 36.9792 28.125C36.9792 27.4343 36.7048 26.7719 36.2164 26.2836C35.728 25.7952 35.0657 25.5208 34.375 25.5208Z" fill="#16687B"/>
<path d="M34.3438 6.39374C34.9606 6.22936 35.6069 6.20891 36.2329 6.33397C36.8589 6.45903 37.4478 6.72625 37.9541 7.11501C38.4605 7.50377 38.8707 8.00367 39.1532 8.57613C39.4357 9.14859 39.5828 9.7783 39.5833 10.4167H18.75L34.3438 6.39374Z" fill="#16687B"/>
</svg>
