<svg width="45" height="45" viewBox="0 0 45 45" fill="none" xmlns="http://www.w3.org/2000/svg">
<path fill-rule="evenodd" clip-rule="evenodd" d="M14.0625 16.875V12.1875C14.0625 9.94974 14.9515 7.80362 16.5338 6.22129C18.1161 4.63895 20.2622 3.75 22.5 3.75C24.7378 3.75 26.8839 4.63895 28.4662 6.22129C30.0486 7.80362 30.9375 9.94974 30.9375 12.1875V16.875H35.625C36.122 16.875 36.5986 17.0723 36.9502 17.4235C37.3017 17.7747 37.4995 18.2512 37.5 18.7481V39.375C37.5008 39.6214 37.4528 39.8656 37.3588 40.0934C37.2648 40.3212 37.1268 40.5282 36.9525 40.7025C36.7782 40.8767 36.5712 41.0148 36.3434 41.1088C36.1156 41.2028 35.8714 41.2507 35.625 41.25H9.37501C8.87805 41.25 8.40142 41.0527 8.04985 40.7015C7.69827 40.3503 7.50051 39.8738 7.50001 39.3769V18.75C7.49927 18.5036 7.54726 18.2594 7.64122 18.0316C7.73519 17.8038 7.87327 17.5968 8.04753 17.4225C8.22178 17.2483 8.42878 17.1102 8.6566 17.0162C8.88442 16.9222 9.12857 16.8743 9.37501 16.875H14.0625ZM16.875 16.875H28.125V12.1875C28.125 10.6957 27.5324 9.26492 26.4775 8.21002C25.4226 7.15513 23.9919 6.5625 22.5 6.5625C21.0082 6.5625 19.5774 7.15513 18.5225 8.21002C17.4676 9.26492 16.875 10.6957 16.875 12.1875V16.875ZM21.375 29.7656V33.75H23.625V29.7656C24.2172 29.5072 24.7024 29.0527 24.9989 28.4786C25.2954 27.9045 25.3852 27.2458 25.2532 26.6133C25.1212 25.9808 24.7754 25.413 24.274 25.0055C23.7726 24.5979 23.1462 24.3754 22.5 24.3754C21.8539 24.3754 21.2274 24.5979 20.726 25.0055C20.2246 25.413 19.8788 25.9808 19.7468 26.6133C19.6148 27.2458 19.7046 27.9045 20.0011 28.4786C20.2977 29.0527 20.7828 29.5072 21.375 29.7656Z" fill="#16687B"/>
</svg>
