<svg width="42" height="42" viewBox="0 0 42 42" fill="none" xmlns="http://www.w3.org/2000/svg">
<mask id="mask0_88_146" style="mask-type:luminance" maskUnits="userSpaceOnUse" x="4" y="4" width="34" height="34">
<path d="M34.125 5.25H7.875C7.17881 5.25 6.51113 5.52656 6.01884 6.01884C5.52656 6.51113 5.25 7.17881 5.25 7.875V34.125C5.25 34.8212 5.52656 35.4889 6.01884 35.9812C6.51113 36.4734 7.17881 36.75 7.875 36.75H34.125C34.8212 36.75 35.4889 36.4734 35.9812 35.9812C36.4734 35.4889 36.75 34.8212 36.75 34.125V7.875C36.75 7.17881 36.4734 6.51113 35.9812 6.01884C35.4889 5.52656 34.8212 5.25 34.125 5.25Z" fill="white" stroke="white" stroke-width="2" stroke-linejoin="round"/>
<path d="M11.7598 26.1056L16.7096 21.1557L20.5491 24.9856L29.7498 15.75" stroke="black" stroke-width="2" stroke-linecap="round" stroke-linejoin="round"/>
<path d="M22.75 15.75H29.75V22.75" stroke="black" stroke-width="2" stroke-linecap="round" stroke-linejoin="round"/>
</mask>
<g mask="url(#mask0_88_146)">
<path d="M0 0H42V42H0V0Z" fill="#5C5B5B"/>
</g>
</svg>
